<svg width="136" height="202" viewBox="0 0 136 202" fill="none" xmlns="http://www.w3.org/2000/svg">
<rect width="136" height="202" rx="68" fill="#F26326"/>
<path d="M104.897 106.892L88.3577 81.613C90.701 80.4123 92.3039 78.0163 92.3039 75.2609C92.3039 72.2449 90.3838 69.6595 87.6735 68.6012L92.6838 51.5218C92.9 50.785 92.6893 49.992 92.1337 49.4501C88.8008 46.2006 83.3781 46.2006 80.0452 49.4501C79.2479 50.2274 78.188 50.6555 77.0606 50.6555C75.9332 50.6555 74.8733 50.2274 74.071 49.445L74.0604 49.4347C70.7394 46.1962 65.326 46.1871 61.9916 49.4155L61.9295 49.4758C60.2837 51.0691 57.6107 51.0645 55.971 49.4655L55.9552 49.4501C52.6223 46.2006 47.1996 46.2006 43.8667 49.4501C43.3106 49.9924 43.1001 50.786 43.3167 51.5233L48.3378 68.5972C45.6217 69.6528 43.6964 72.2409 43.6964 75.2611C43.6964 78.0165 45.2991 80.4125 47.6427 81.6132L31.1036 106.892C24.7052 116.672 24.2997 128.584 30.019 138.755C35.7383 148.927 46.2556 155 58.1531 155H77.8468C89.744 155 100.261 148.927 105.981 138.755C111.7 128.584 111.295 116.672 104.897 106.892V106.892ZM52.8953 52.4333L52.9111 52.4487C56.2325 55.687 61.6457 55.6959 64.9799 52.4679L65.042 52.4076C66.6876 50.8143 69.3606 50.8189 71.0055 52.4228L71.0161 52.4331C74.349 55.6826 79.7717 55.6826 83.1046 52.4331C84.4607 51.1109 86.5176 50.8782 88.1203 51.7351L83.3233 68.0886H52.69L47.8805 51.7349C49.4832 50.8782 51.5394 51.1113 52.8953 52.4333V52.4333ZM102.187 136.727C97.2387 145.527 88.1398 150.781 77.847 150.781H58.1533C47.8605 150.781 38.7616 145.527 33.8136 136.727C28.8656 127.927 29.2164 117.622 34.7517 109.161L52.2384 82.4332H58.2643C59.4592 82.4332 60.4278 81.4888 60.4278 80.3237C60.4278 79.1586 59.4592 78.2142 58.2643 78.2142H51.0524C49.3822 78.2142 48.0235 76.8894 48.0235 75.2609C48.0235 73.6323 49.3822 72.3076 51.0524 72.3076H51.0595H84.9477C86.618 72.3076 87.9767 73.6323 87.9767 75.2609C87.9767 76.8894 86.618 78.2142 84.9477 78.2142H77.736C76.5411 78.2142 75.5725 79.1586 75.5725 80.3237C75.5725 81.4888 76.5411 82.4332 77.736 82.4332H83.7617L101.249 109.161C106.784 117.622 107.135 127.927 102.187 136.727Z" fill="white"/>
<path d="M71.8145 115.892C71.2717 115.705 70.7176 115.51 70.1637 115.308V105.747C71.6306 106.168 72.6103 106.85 72.6518 106.88C73.6035 107.575 74.9538 107.391 75.673 106.465C76.3945 105.537 76.2073 104.214 75.255 103.51C75.128 103.416 73.1163 101.96 70.1637 101.409V99.3095C70.1637 98.1444 69.1951 97.2 68.0002 97.2C66.8053 97.2 65.8367 98.1444 65.8367 99.3095V101.394C65.4702 101.462 65.0987 101.549 64.7223 101.659C61.6773 102.551 59.4013 105.09 58.7823 108.285C58.2174 111.203 59.1761 114.017 61.2842 115.629C62.4283 116.504 63.8577 117.302 65.8367 118.151V130.385C64.1329 130.28 62.9932 129.902 61.0932 128.69C60.0934 128.052 58.7522 128.326 58.0982 129.301C57.4439 130.276 57.7243 131.583 58.7243 132.221C61.4949 133.988 63.3709 134.489 65.8367 134.607V136.788C65.8367 137.953 66.8053 138.898 68.0002 138.898C69.1951 138.898 70.1637 137.953 70.1637 136.788V134.388C74.7967 133.398 77.5063 129.629 78.1143 126.103C78.9089 121.493 76.4362 117.485 71.8145 115.892ZM63.9546 112.309C63.123 111.673 62.7703 110.431 63.0343 109.068C63.277 107.815 64.142 106.303 65.8367 105.744V113.469C65.1253 113.1 64.4834 112.713 63.9546 112.309ZM73.8469 125.403C73.5354 127.21 72.2847 129.126 70.1635 129.973V119.797C70.2341 119.821 70.3009 119.845 70.3723 119.87C74.2513 121.206 74.0127 124.443 73.8469 125.403V125.403Z" fill="white"/>
<path d="M68.0002 82.4332C68.5692 82.4332 69.1274 82.2075 69.5298 81.8151C69.9322 81.4227 70.1637 80.8785 70.1637 80.3237C70.1637 79.7689 69.9322 79.2246 69.5298 78.8323C69.1274 78.4399 68.5692 78.2142 68.0002 78.2142C67.4312 78.2142 66.873 78.4399 66.4706 78.8323C66.0682 79.2246 65.8367 79.7689 65.8367 80.3237C65.8367 80.8785 66.0682 81.4227 66.4706 81.8151C66.873 82.2075 67.431 82.4332 68.0002 82.4332Z" fill="white"/>
</svg>
